<svg id="Capa_1" enable-background="new 0 0 512 512" height="512" viewBox="0 0 512 512" width="512" xmlns="http://www.w3.org/2000/svg"><g><path d="m498.942 353.018h-69.752v-114.744c0-4.143-3.357-7.5-7.5-7.5s-7.5 3.357-7.5 7.5v114.744c-15.36 0-113.903 0-130.323 0v-32.5c0-4.143-3.357-7.5-7.5-7.5h-75.311c0-9.222 0-163.488 0-178.789h85.179v30.854c0 6.604 5.372 11.976 11.976 11.976h18.824c6.604 0 11.977-5.372 11.977-11.976v-30.854h85.179v74.059c0 4.143 3.357 7.5 7.5 7.5s7.5-3.357 7.5-7.5v-76c0-7.2-5.858-13.059-13.059-13.059-36.814 0-123.594 0-157.855 0v-105.978c0-7.2-5.858-13.059-13.059-13.059h-137.75c-7.201 0-13.059 5.858-13.059 13.059v47.416c0 4.143 3.358 7.5 7.5 7.5s7.5-3.357 7.5-7.5v-45.475h45.545v30.854c0 6.604 5.372 11.976 11.976 11.976h18.825c6.604 0 11.976-5.372 11.976-11.976v-30.854h45.545v104.037h-49.719c-4.142 0-7.5 3.357-7.5 7.5v62.5h-76.647v-98.576c0-4.143-3.358-7.5-7.5-7.5s-7.5 3.357-7.5 7.5v98.577h-44.162c-7.201 0-13.059 5.857-13.059 13.058v110.73h-24.131c-7.2 0-13.058 5.858-13.058 13.059v178.23c0 4.143 3.358 7.5 7.5 7.5h79.416c4.142 0 7.5-3.357 7.5-7.5s-3.358-7.5-7.5-7.5h-71.916v-168.789h105.545v30.853c0 6.604 5.373 11.977 11.976 11.977h18.824c6.604 0 11.976-5.373 11.976-11.977v-30.853h105.545v168.789h-151.964c-4.142 0-7.5 3.357-7.5 7.5s3.358 7.5 7.5 7.5h387.597c4.143 0 7.5-3.357 7.5-7.5v-138.23c.001-7.2-5.857-13.059-13.057-13.059zm-316.212-309.997h-12.776v-27.828h12.776zm131.281 91.208v27.829h-12.776v-27.829zm-201.277 70.001h12.777v27.828h-12.777zm-60.545 0h45.545v30.853c0 6.604 5.373 11.976 11.976 11.976h18.825c6.604 0 11.976-5.372 11.976-11.976v-30.853h45.545v108.788c-28.991 0-109.636 0-133.867 0zm96.132 151.617h-12.776v-27.829h12.776zm248.501 12.171v27.829h-12.777v-27.829zm100.178 128.789h-213.133v-128.789h85.178v30.853c0 6.604 5.373 11.977 11.977 11.977h18.824c6.604 0 11.977-5.373 11.977-11.977v-30.853h85.178v128.789z"/></g></svg>