<?xml version="1.0"?>
<svg xmlns="http://www.w3.org/2000/svg" id="outline" viewBox="0 0 512 512" width="512" height="512"><path d="M59.5625,198.65625l48,32A7.99836,7.99836,0,0,0,112,232h48a7.99836,7.99836,0,0,0,4.4375-1.34375l48-32A7.99943,7.99943,0,0,0,216,192V104a7.99927,7.99927,0,0,0-4.11523-6.99316l-72-40a7.99618,7.99618,0,0,0-7.76954,0l-72,40A7.99927,7.99927,0,0,0,56,104v88A7.99943,7.99943,0,0,0,59.5625,198.65625ZM157.57812,216H114.42188L72,187.71875V117.59583l60.11523,33.39733a7.99788,7.99788,0,0,0,7.76954,0L200,117.59583v70.12292ZM136,73.15186,191.52734,104,136,134.84814,80.47266,104Z"/><rect x="136" y="264" width="40" height="16"/><rect x="96" y="264" width="24" height="16"/><rect x="152" y="296" width="48" height="16"/><rect x="72" y="296" width="64" height="16"/><path d="M472,24a8.00008,8.00008,0,0,0-8-8H400a8.00008,8.00008,0,0,0-8,8V144H336a8.00008,8.00008,0,0,0-8,8v96H272a8.00008,8.00008,0,0,0-8,8v72H208a8.00008,8.00008,0,0,0-8,8v53.35486a184.91086,184.91086,0,0,0-20.05078-10.08L160,370.725V360a8.00008,8.00008,0,0,0-8-8H24a8.00008,8.00008,0,0,0-8,8v96a8.00008,8.00008,0,0,0,8,8H152a7.96954,7.96954,0,0,0,5.58032-2.27368A95.77127,95.77127,0,0,0,231.0957,496H312a23.99123,23.99123,0,0,0,22.62378-32H496V448H472ZM280,264h48V448H286.62378a23.98127,23.98127,0,0,0-5.655-24.97168c-.31543-.31525-.6394-.61822-.96875-.91363Zm-64,80h48v72h-.00488l-28.72266.00586A184.17574,184.17574,0,0,0,216,399.79272ZM144,448H32V368H144Zm168,32H231.0957a79.83745,79.83745,0,0,1-66.56347-35.62451L160,437.57751V388.13232l13.64648,5.84864a167.473,167.473,0,0,1,52.69727,35.68164,7.99952,7.99952,0,0,0,5.65723,2.34375h.00195L263.99805,432a8,8,0,0,1,.00488,16H224v16h32.00293v.00244L312,464.00049A7.99976,7.99976,0,1,1,312,480Zm32-320h48V448H344Zm64,288V32h48V448Z"/><rect x="352" y="480" width="32" height="16"/><rect x="416" y="480" width="32" height="16"/></svg>
