<?xml version="1.0" encoding="iso-8859-1"?>
<!-- Generator: Adobe Illustrator 19.0.0, SVG Export Plug-In . SVG Version: 6.00 Build 0)  -->
<svg version="1.1" id="Capa_1" xmlns="http://www.w3.org/2000/svg" xmlns:xlink="http://www.w3.org/1999/xlink" x="0px" y="0px"
	 viewBox="0 0 512 512" style="enable-background:new 0 0 512 512;" xml:space="preserve">
<g>
	<g>
		<path d="M480.453,0h-32.064c-4.142,0-7.5,3.358-7.5,7.5v8.532H71.114V7.5c0-4.142-3.358-7.5-7.5-7.5H31.549
			c-4.142,0-7.5,3.358-7.5,7.5v497c0,4.142,3.358,7.5,7.5,7.5h32.064c4.142,0,7.5-3.358,7.5-7.5v-16.548h369.774V504.5
			c0,4.142,3.358,7.5,7.5,7.5h32.064c4.142,0,7.5-3.358,7.5-7.5V7.5C487.953,3.358,484.595,0,480.453,0z M184.372,472.953h-81.194
			v-81.194h33.097v16.548c0,4.141,3.358,7.5,7.5,7.5c4.142,0,7.5-3.358,7.5-7.5v-16.548h33.097V472.953z M312.63,384.258v88.694
			H199.372v-88.694v-24.564h49.129v16.548c0,4.142,3.358,7.5,7.5,7.5c4.142,0,7.5-3.358,7.5-7.5v-16.548h49.129V384.258z
			 M408.824,472.952H327.63v-81.194h33.097v16.548c0,4.142,3.358,7.5,7.5,7.5c4.142,0,7.5-3.358,7.5-7.5v-16.548h33.097V472.952z
			 M440.887,472.952h-17.063v0v-88.694c0-4.142-3.358-7.5-7.5-7.5H327.63v-24.564c0-4.142-3.358-7.5-7.5-7.5H191.872
			c-4.142,0-7.5,3.358-7.5,7.5v24.564H95.678c-4.142,0-7.5,3.358-7.5,7.5v88.694H71.114v-8.532c0-4.142-3.358-7.5-7.5-7.5
			c-4.142,0-7.5,3.358-7.5,7.5V497H39.049V15h17.064v417.359c0,4.142,3.358,7.5,7.5,7.5c4.142,0,7.5-3.358,7.5-7.5V319.613h369.774
			V472.952z M127.742,271.516c4.142,0,7.5-3.358,7.5-7.5v-8.532h17.065v49.129h-49.129v0v-49.129h17.064v8.532
			C120.242,268.158,123.6,271.516,127.742,271.516z M199.889,259.492c4.142,0,7.5-3.358,7.5-7.5v-12.54h25.081v65.161h-65.162
			v-56.629v-8.532h25.081v12.54C192.389,256.134,195.747,259.492,199.889,259.492z M288.066,247.468c4.142,0,7.5-3.358,7.5-7.5
			V223.42h33.097v8.532v72.661h-81.194v-72.661v-8.532h33.097v16.548C280.566,244.11,283.924,247.468,288.066,247.468z
			 M376.243,259.492c4.142,0,7.5-3.358,7.5-7.5v-12.54h25.081v65.161h-65.162v-65.161h25.081v12.54
			C368.743,256.134,372.101,259.492,376.243,259.492z M440.888,304.613h-17.064v-72.661c0-4.142-3.358-7.5-7.5-7.5h-72.662v-8.532
			c0-4.142-3.358-7.5-7.5-7.5h-96.193c-4.142,0-7.5,3.358-7.5,7.5v8.532h-72.661c-4.142,0-7.5,3.358-7.5,7.5v8.532h-56.63
			c-4.142,0-7.5,3.358-7.5,7.5v56.629H71.114V183.339h369.774V304.613z M151.792,99.169c4.142,0,7.5-3.358,7.5-7.5V71.113h41.113
			v8.532v88.693h-97.226V71.113h41.113V91.67C144.292,95.812,147.649,99.169,151.792,99.169z M256.001,111.194
			c4.142,0,7.5-3.358,7.5-7.5V87.145h33.097v81.193h-81.193V87.145h33.096v16.548C248.501,107.836,251.859,111.194,256.001,111.194z
			 M376.243,123.218c4.142,0,7.5-3.358,7.5-7.5v-12.54h25.081v65.161h-65.162v-65.161h25.081v12.54
			C368.743,119.86,372.101,123.218,376.243,123.218z M455.889,497V71.629c0-4.142-3.358-7.5-7.5-7.5c-4.142,0-7.5,3.358-7.5,7.5
			v96.709h-17.064V95.677c0-4.142-3.358-7.5-7.5-7.5h-80.162c-4.142,0-7.5,3.358-7.5,7.5v72.661h-17.064V79.645
			c0-4.142-3.358-7.5-7.5-7.5h-88.693v-8.532c0-4.142-3.358-7.5-7.5-7.5H95.678c-4.142,0-7.5,3.358-7.5,7.5v104.726H71.114V31.032
			h369.774v8.53c0,4.142,3.358,7.5,7.5,7.5c4.142,0,7.5-3.358,7.5-7.5V15h17.064v482H455.889z"/>
	</g>
</g>
<g>
</g>
<g>
</g>
<g>
</g>
<g>
</g>
<g>
</g>
<g>
</g>
<g>
</g>
<g>
</g>
<g>
</g>
<g>
</g>
<g>
</g>
<g>
</g>
<g>
</g>
<g>
</g>
<g>
</g>
</svg>
