<svg height="462pt" viewBox="0 -10 462.18976 462" width="462pt" xmlns="http://www.w3.org/2000/svg"><path d="m383 50.769531c-3.121094-3.121093-8.179688-3.125-11.304688-.007812l-66 65.8125c-.910156.910156-1.589843 2.027343-1.980468 3.257812l-13.230469 41.886719c-.898437 2.847656-.136719 5.957031 1.972656 8.066406 2.109375 2.113282 5.21875 2.871094 8.066407 1.972656l41.890624-13.230468c1.226563-.386719 2.34375-1.066406 3.253907-1.980469l65.816406-66c3.117187-3.125 3.113281-8.183594-.007813-11.304687zm-68 86.445313 10.03125 10.027344-14.65625 4.628906zm24.992188 2.363281-17.328126-17.332031 54.667969-54.515625 17.175781 17.179687zm0 0"/><path d="m94.300781 273.242188h104.386719c4.417969 0 8-3.582032 8-8 0-4.417969-3.582031-8-8-8h-104.386719c-4.417969 0-8 3.582031-8 8 0 4.417968 3.582031 8 8 8zm0 0"/><path d="m253.628906 312.242188h-159.328125c-4.417969 0-8 3.582031-8 8 0 4.417968 3.582031 8 8 8h159.328125c4.417969 0 8-3.582032 8-8 0-4.417969-3.582031-8-8-8zm0 0"/><path d="m349.964844.09375c-55.707032 0-102.0625 41.148438-110.777344 94.148438h-231.410156c-2.082032-.027344-4.085938.792968-5.550782 2.273437-1.46875 1.480469-2.2695308 3.492187-2.226562 5.574219v332.375c-.0390625 2.074218.765625 4.078125 2.234375 5.546875 1.464844 1.464843 3.46875 2.273437 5.542969 2.230469h332.378906c2.082031.042968 4.089844-.757813 5.570312-2.222657 1.480469-1.46875 2.300782-3.472656 2.273438-5.554687v-209.953125c1 .011719 1.285156.023437 1.890625.023437 61.898437 0 112.300781-50.320312 112.300781-112.21875-.058594-61.957031-50.269531-112.167968-112.226562-112.222656zm-219.964844 110.148438h88v62.96875l-41.464844-14.574219c-1.660156-.601563-3.480468-.601563-5.144531 0l-41.390625 14.574219zm202 316h-316v-316h98v74.253906c-.050781 2.578125 1.167969 5.019531 3.261719 6.527344 2.089843 1.503906 4.789062 1.886718 7.21875 1.023437l49.515625-17.386719 49.527344 17.382813c.847656.296875 1.742187.449219 2.640624.449219 1.632813 0 3.222657-.515626 4.546876-1.472657 2.09375-1.507812 3.320312-3.941406 3.289062-6.523437v-74.253906h3.734375c-.011719 1-.101563 1.378906-.101563 2.113281 0 55.835937 41.371094 102.199219 94.371094 110.761719zm17.964844-217.707032c-53.160156 0-96.257813-43.097656-96.257813-96.257812 0-53.164063 43.097657-96.261719 96.261719-96.257813 53.160156 0 96.257812 43.097657 96.257812 96.257813-.0625 53.136718-43.125 96.199218-96.261718 96.257812zm0 0"/></svg>