<svg xmlns="http://www.w3.org/2000/svg" height="512pt" version="1.1" viewBox="-31 0 512 512.00058" width="512pt">
<g id="surface1">
<path d="M 266.78125 278.539062 C 262.285156 274.042969 255.019531 274.042969 250.523438 278.539062 L 162.671875 366.160156 C 161.40625 367.425781 160.367188 369.042969 159.789062 370.886719 L 142.152344 426.570312 C 140.882812 430.722656 141.921875 435.101562 145.035156 438.214844 C 147.222656 440.40625 150.222656 441.558594 153.21875 441.558594 C 154.371094 441.558594 155.523438 441.328125 156.679688 440.980469 L 212.476562 423.34375 C 214.207031 422.765625 215.820312 421.84375 217.203125 420.460938 L 304.824219 332.609375 C 309.320312 328.113281 309.320312 320.851562 304.824219 316.351562 Z M 176.046875 395.902344 L 187.34375 407.203125 L 170.859375 412.390625 Z M 208.90625 396.132812 L 187.113281 374.34375 L 258.710938 302.980469 L 280.382812 324.65625 Z M 208.90625 396.132812 " style=" stroke:none;fill-rule:nonzero;fill:rgb(0%,0%,0%);fill-opacity:1;" />
<path d="M 390.714844 46.460938 C 384.488281 32.28125 370.425781 23.058594 354.859375 23.058594 L 317.046875 23.058594 L 317.046875 11.527344 C 317.046875 5.1875 312.433594 0 305.976562 0 L 143.652344 0 C 137.308594 0 132.582031 5.074219 132.582031 11.527344 L 132.582031 23.058594 L 94.769531 23.058594 C 79.203125 23.058594 65.140625 32.28125 58.914062 46.460938 L 0.691406 178.929688 C 0 180.425781 0 182.042969 0 183.539062 L 0 290.183594 C 0 322.003906 25.363281 348.175781 57.183594 348.175781 L 71.59375 348.175781 C 71.363281 351.632812 71.25 354.976562 71.25 358.550781 C 71.25 443.289062 140.191406 512 224.816406 512 C 309.4375 512 378.378906 443.289062 378.378906 358.550781 C 378.378906 354.976562 378.265625 351.632812 378.035156 348.175781 L 392.445312 348.175781 C 424.265625 348.175781 449.628906 322.003906 449.628906 290.183594 L 449.628906 183.539062 C 449.628906 181.925781 449.511719 180.3125 448.9375 178.929688 Z M 369.617188 55.570312 L 420.921875 171.78125 L 370.078125 171.78125 L 370.078125 117.824219 C 370.078125 111.484375 364.429688 106.066406 358.089844 106.066406 L 340.101562 106.066406 L 340.101562 57.644531 C 340.101562 51.765625 336.296875 47.269531 330.648438 46.117188 L 354.859375 46.117188 C 361.316406 46.117188 367.082031 49.804688 369.617188 55.570312 Z M 287.648438 218.242188 C 268.507812 209.597656 247.179688 204.871094 224.816406 204.871094 C 202.449219 204.871094 181.234375 209.710938 162.097656 218.242188 C 148.609375 200.605469 144.574219 181.464844 144.574219 181.234375 C 143.535156 175.816406 138.808594 171.78125 133.273438 171.78125 L 102.609375 171.78125 L 102.609375 129.125 L 347.019531 129.125 L 347.019531 171.78125 L 316.46875 171.78125 C 310.9375 171.78125 306.210938 175.816406 305.171875 181.234375 C 305.054688 181.464844 301.136719 200.488281 287.648438 218.242188 Z M 317.046875 69.171875 L 317.046875 106.066406 L 132.582031 106.066406 L 132.582031 69.171875 Z M 293.988281 23.058594 L 293.988281 46.117188 L 155.640625 46.117188 L 155.640625 23.058594 Z M 80.011719 55.570312 C 82.546875 49.691406 88.425781 46.117188 94.769531 46.117188 L 118.976562 46.117188 C 113.328125 47.269531 109.523438 51.765625 109.523438 57.644531 L 109.523438 106.066406 L 91.539062 106.066406 C 85.199219 106.066406 79.550781 111.484375 79.550781 117.824219 L 79.550781 171.78125 L 28.707031 171.78125 Z M 57.183594 325.117188 C 38.046875 325.117188 23.058594 309.320312 23.058594 290.183594 L 23.058594 194.839844 L 124.398438 194.839844 C 127.164062 204.0625 132.351562 216.511719 141.574219 229.3125 C 108.371094 250.871094 83.816406 284.765625 74.9375 325.117188 Z M 224.816406 488.828125 C 152.875 488.828125 94.308594 430.261719 94.308594 358.320312 C 94.308594 286.378906 152.875 227.8125 224.816406 227.8125 C 296.753906 227.8125 355.324219 286.378906 355.324219 358.320312 C 355.320312 430.375 296.753906 488.828125 224.816406 488.828125 Z M 426.570312 290.183594 C 426.570312 309.207031 411.582031 325.117188 392.445312 325.117188 L 374.691406 325.117188 C 365.8125 284.765625 341.257812 250.871094 308.054688 229.3125 C 317.277344 216.398438 322.464844 204.0625 325.230469 194.839844 L 426.570312 194.839844 Z M 426.570312 290.183594 " style=" stroke:none;fill-rule:nonzero;fill:rgb(0%,0%,0%);fill-opacity:1;" />
</g>
</svg>