<svg id="_x33_0" enable-background="new 0 0 64 64" height="512" viewBox="0 0 64 64" width="512" xmlns="http://www.w3.org/2000/svg"><g><circle cx="16" cy="16" r="1"/><circle cx="24" cy="16" r="1"/><path d="m23.789 20.658.105-.211-1.789-.895-.105.212c-.381.762-1.147 1.236-2 1.236s-1.619-.474-2-1.236l-.105-.211-1.789.895.105.211c.722 1.444 2.174 2.341 3.789 2.341s3.067-.897 3.789-2.342z"/><path d="m21.707 12.293c-.456-.456-.707-1.063-.707-1.707v-1.586h-2v1.586c0 1.179.459 2.287 1.293 3.121z"/><path d="m25.707 12.293c-.456-.456-.707-1.063-.707-1.707v-1.586h-2v1.586c0 1.179.459 2.287 1.293 3.121z"/><path d="m61 41h-4v-18h2c1.103 0 2-.897 2-2v-18c0-1.103-.897-2-2-2h-18c-1.103 0-2 .897-2 2v18h-2c-1.103 0-2 .897-2 2v7.832c-1.312-.994-2.872-1.681-4.586-1.926l-5.607-.801-.545-2.181c1.951-1.053 3.463-2.81 4.214-4.924h.524c2.206 0 4-1.794 4-4 0-.901-.31-1.724-.814-2.393l.322-.967c.326-.982.492-2.003.492-3.036 0-5.295-4.309-9.604-9.604-9.604h-6.793c-5.294 0-9.603 4.309-9.603 9.604 0 1.033.166 2.055.492 3.037l.322.967c-.504.668-.814 1.491-.814 2.392 0 2.206 1.794 4 4 4h.525c.751 2.114 2.262 3.871 4.214 4.924l-.545 2.181-5.607.801c-4.896.699-8.587 4.954-8.587 9.9v11.194c0 3.519 2.614 6.432 6 6.92v6.08h26v-6.08c3.386-.488 6-3.401 6-6.92v-7h2v18c0 1.103.897 2 2 2h18c1.103 0 2-.897 2-2v-18c0-1.103-.897-2-2-2zm-14-38h2v4h-2zm4 0h2v4h-2zm-10 0h4v6h10v-6h4v18h-18zm2 20h2v4h-2zm4 0h2v4h-2zm-21.464 7.23-1.149 3.448-2.607-1.043 2.574-2.574zm3.464-11.23h-.059c.037-.329.059-.662.059-1v-3c1.103 0 2 .897 2 2s-.897 2-2 2zm-18 0c-1.103 0-2-.897-2-2s.897-2 2-2v3c0 .338.022.671.059 1zm2-1v-4c0-1.654 1.346-3 3-3h1v-2h-1c-2.414 0-4.434 1.721-4.899 4h-.101c-.535 0-1.045.11-1.512.301l-.097-.292c-.26-.779-.391-1.587-.391-2.405 0-4.193 3.411-7.604 7.604-7.604h6.793c4.192 0 7.603 3.411 7.603 7.604 0 .818-.131 1.627-.391 2.404l-.098.293c-.466-.191-.976-.301-1.511-.301v-1h-2v6c0 3.859-3.141 7-7 7s-7-3.141-7-7zm7 9c.827 0 1.625-.121 2.387-.331l.506 2.024-2.893 2.893-2.893-2.893.506-2.024c.762.21 1.56.331 2.387.331zm-4.354 3.06 2.574 2.574-2.607 1.043-1.149-3.448zm-6.646 26.94h2v4h-2zm10-8c1.103 0 2 .897 2 2s-.897 2-2 2h-2v-4zm-2.184 6h2.184c2.206 0 4-1.794 4-4s-1.794-4-4-4h-6v-6h2v2c0 1.103.897 2 2 2h6c1.103 0 2-.897 2-2v-2h2v20h-14v-4h1c1.302 0 2.402-.839 2.816-2zm.184-14h6v2h-6zm12 20v-4h2v4zm8-11c0 2.757-2.243 5-5 5h-3v-6h6v-2h-2v-8h-2v8h-2v-6c0-1.103-.897-2-2-2h-14c-1.103 0-2 .897-2 2v6h-2v-8h-2v8h-2v2h10v5c0 .552-.448 1-1 1h-6c-2.757 0-5-2.243-5-5v-11.194c0-3.956 2.953-7.36 6.869-7.919l2.583-.369 1.934 5.805 5.614-2.246 5.613 2.245 1.934-5.805 2.583.369c3.917.559 6.87 3.964 6.87 7.92zm2-9v-2.194c0-2.214-.744-4.286-2-5.966v-9.84h4v6h10v-6h4v18zm10 2h2v4h-2zm4 0h2v4h-2zm8 18h-18v-18h4v6h10v-6h4z"/></g></svg>